<svg viewBox="260 30 1470 580" width="512" height="512" version="1.1" xmlns="http://www.w3.org/2000/svg">
<style>.vertex { font-family: Consolas } .edge { font-family: Consolas } .text { font-family: Consolas }</style>
    <path d="M 360 100L 355.20772427156163 113.2361097892632L 350.6842625224352 126.47806336068535L 346.42961475262064 139.72586071426647L 342.44378096211796 152.97950185000656L 338.72676115092725 166.23898676790557L 335.2785553190484 179.50431546796355L 332.09916346648146 192.7754879501805L 329.18858559322643 206.05250421455636L 326.54682169928327 219.33536426109123L 324.1738717846521 232.624068089785L 322.06973584933274 245.91861570063776L 320.2344138933253 259.21900709364945L 318.6679059166298 272.52524226882014L 317.37021191924623 285.8373212261497L 316.3413319011745 299.1552439656383L 315.58126586241474 312.4790104872858L 315.09001380296684 325.80862079109227L 314.8675757228309 339.14407487705773L 314.91395162200683 352.48537274518213L 315.2291415004946 365.83251439546547L 315.8131453582944 379.18549982790773L 316.665963195406 392.54432904250905L 317.7875950118296 405.90900203926924L 319.178040807565 419.2795188181884L 320.8373005826124 432.6558793792665L 322.76537433697166 446.0380837225036L 324.9622620706428 459.42613184789957L 327.4279637836259 472.8200237554546L 330.16247947592086 486.2197594451685L 333.16580914752774 499.6253389170414L 336.43795279844653 513.0367621710733L 339.97891042867724 526.454029207264" fill="none" stroke="#000000" stroke-width="2"></path>
    <path transform="translate(339.97891042867724 526.454029207264) rotate(73.36769065962005)" d="M-1, -5 L 14 0 L -1, 5 z" fill="#000000"></path>
    <text class="edge" transform="translate(315.0094484470434 329.1306401836314) rotate(-88.75463573323165)" fill="#000000" x="0" y="-5" dominant-baseline="text-bottom" text-anchor="middle" font-size="18px">0.28</text>
    <path d="M 360 100L 384.0958786010742 104.32637535006506L 408.19175720214844 108.1261190760415L 432.28763580322266 111.39923117792932L 456.3835144042969 114.14571165572852L 480.4793930053711 116.36556050943909L 504.5752716064453 118.05877773906104L 528.6711502075195 119.22536334459437L 552.7670288085938 119.86531732603908L 576.862907409668 119.97863968339516L 600.9587860107422 119.56533041666262L 625.0546646118164 118.62538952584146L 649.1505432128906 117.15881701093167L 673.2464218139648 115.16561287193326L 697.3423004150391 112.64577710884623L 721.4381790161133 109.59930972167058L 745.5340576171875 106.0262107104063" fill="none" stroke="#000000" stroke-width="2"></path>
    <path transform="translate(745.5340576171875 106.0262107104063) rotate(-9.917649321582978)" d="M-1, -5 L 14 0 L -1, 5 z" fill="#000000"></path>
    <text class="edge" transform="translate(570 120) rotate(0)" fill="#000000" x="0" y="-5" dominant-baseline="text-bottom" text-anchor="middle" font-size="18px">0.42</text>
    <path d="M 350 560L 354.79227572843837 546.7638902107368L 359.3157374775648 533.5219366393146L 363.57038524737936 520.2741392857336L 367.55621903788204 507.02049814999344L 371.27323884907275 493.7610132320944L 374.7214446809516 480.4956845320364L 377.9008365335186 467.2245120498195L 380.81141440677357 453.9474957854436L 383.45317830071673 440.66463573890877L 385.8261282153479 427.37593191021494L 387.93026415066726 414.0813842993622L 389.7655861066746 400.78099290635055L 391.3320940833702 387.47475773117986L 392.62978808075377 374.16267877385025L 393.6586680988255 360.8447560343617L 394.41873413758526 347.52098951271415L 394.90998619703316 334.1913792089077L 395.1324242771691 320.85592512294227L 395.08604837799317 307.5146272548178L 394.7708584995054 294.1674856045345L 394.1868546417056 280.8145001720922L 393.334036804594 267.45567095749095L 392.2124049881704 254.09099796073076L 390.821959192435 240.72048118181158L 389.1626994173876 227.34412062073346L 387.2346256630284 213.9619162774964L 385.03773792935715 200.57386815210037L 382.57203621637416 187.1799762445454L 379.83752052407914 173.7802405548315L 376.83419085247226 160.3746610829586L 373.56204720155347 146.96323782892676L 370.02108957132276 133.54597079273594" fill="none" stroke="#000000" stroke-width="2"></path>
    <path transform="translate(370.02108957132276 133.54597079273594) rotate(-106.63230934037996)" d="M-1, -5 L 14 0 L -1, 5 z" fill="#000000"></path>
    <text class="edge" transform="translate(394.9905515529566 330.8693598163686) rotate(-88.75463573323165)" fill="#000000" x="0" y="-5" dominant-baseline="text-bottom" text-anchor="middle" font-size="18px">0.1016</text>
    <path d="M 350 560L 370.20839561029675 550.3550769017816L 390.1077798778161 540.2936602546023L 409.69815280255796 529.8157500584621L 428.9795143845224 518.9213463133611L 447.9518646237095 507.6104490192992L 466.61520352011917 495.88305817627645L 484.9695310737514 483.7391737842928L 503.01484728460616 471.1787958433483L 520.7511521526835 458.2019243534429L 538.1784456779835 444.80855931457666L 555.296727860506 430.9987007267495L 572.1059987002512 416.77234858996155L 588.606258197219 402.1295029042127L 604.7975063514092 387.0701636695029L 620.6797431628221 371.59433088583233L 636.2529686314575 355.7020045532009" fill="none" stroke="#000000" stroke-width="2"></path>
    <path transform="translate(636.2529686314575 355.7020045532009) rotate(-47.26401599313189)" d="M-1, -5 L 14 0 L -1, 5 z" fill="#000000"></path>
    <text class="edge" transform="translate(516.9169384834693 461.06196056467604) rotate(-36.57303097851933)" fill="#000000" x="0" y="-5" dominant-baseline="text-bottom" text-anchor="middle" font-size="18px">0.7</text>
    <path d="M 780 100L 755.9041213989258 95.67362464993494L 731.8082427978516 91.8738809239585L 707.7123641967773 88.60076882207068L 683.6164855957031 85.85428834427148L 659.5206069946289 83.63443949056091L 635.4247283935547 81.94122226093896L 611.3288497924805 80.77463665540563L 587.2329711914062 80.13468267396092L 563.137092590332 80.02136031660484L 539.0412139892578 80.43466958333738L 514.9453353881836 81.37461047415854L 490.8494567871094 82.84118298906833L 466.75357818603516 84.83438712806674L 442.65769958496094 87.35422289115377L 418.5618209838867 90.40069027832942L 394.4659423828125 93.9737892895937" fill="none" stroke="#000000" stroke-width="2"></path>
    <path transform="translate(394.4659423828125 93.9737892895937) rotate(170.08235067841704)" d="M-1, -5 L 14 0 L -1, 5 z" fill="#000000"></path>
    <text class="edge" transform="translate(570 80) rotate(0)" fill="#000000" x="0" y="-5" dominant-baseline="text-bottom" text-anchor="middle" font-size="18px">0.5642</text>
    <path d="M 780 100L 788.2361778676816 128.6037418672432L 796.9657384842517 156.98224378390694L 806.1886818497101 185.13550574999118L 815.905007964057 213.06352776549596L 826.1147168272921 240.76630983042125L 836.8178084394156 268.243851944767L 848.0142828004275 295.49615410853335L 859.704139910328 322.5232163217202L 871.8873797691167 349.32503858432756L 884.5640023767937 375.90162089635544L 897.7340077333592 402.25296325780386L 911.3973958388132 428.37906566867275L 925.5541666931554 454.2799281289622L 940.2043202963861 479.95555063867215L 955.3478566485052 505.40593319780265L 970.9847757495126 530.6310758063537" fill="none" stroke="#000000" stroke-width="2"></path>
    <path transform="translate(970.9847757495126 530.6310758063537) rotate(57.07852960630037)" d="M-1, -5 L 14 0 L -1, 5 z" fill="#000000"></path>
    <text class="edge" transform="translate(866.8062399227393 338.3058469917929) rotate(65.4622715234222)" fill="#000000" x="0" y="-5" dominant-baseline="text-bottom" text-anchor="middle" font-size="18px">0.7</text>
    <path d="M 660 330L 639.7916043897033 339.64492309821844L 619.892220122184 349.7063397453977L 600.301847197442 360.18424994153787L 581.0204856154776 371.07865368663886L 562.0481353762905 382.3895509807008L 543.3847964798808 394.11694182372355L 525.0304689262487 406.2608262157072L 506.98515271539384 418.8212041566517L 489.2488478473164 431.7980756465571L 471.8215543220165 445.19144068542334L 454.70327213949395 459.0012992732505L 437.89400129974877 473.22765141003845L 421.3937418027811 487.8704970957873L 405.2024936485908 502.9298363304971L 389.32025683717796 518.4056691141677L 373.7470313685425 534.2979954467992" fill="none" stroke="#000000" stroke-width="2"></path>
    <path transform="translate(373.7470313685425 534.2979954467992) rotate(132.73598400686816)" d="M-1, -5 L 14 0 L -1, 5 z" fill="#000000"></path>
    <text class="edge" transform="translate(493.0830615165307 428.93803943532396) rotate(-36.57303097851934)" fill="#000000" x="0" y="-5" dominant-baseline="text-bottom" text-anchor="middle" font-size="18px">0.0406</text>
    <path d="M 660 330L 763.809814453125 131.03118896484375" fill="none" stroke="#000000" stroke-width="2"></path>
    <path transform="translate(763.809814453125 131.03118896484375) rotate(-62.447188423282206)" d="M-1, -5 L 14 0 L -1, 5 z" fill="#000000"></path>
    <text class="edge" transform="translate(720 215) rotate(-62.44718842328219)" fill="#000000" x="0" y="-5" dominant-baseline="text-bottom" text-anchor="middle" font-size="18px">0.061</text>
    <path d="M 660 330L 667.1168434932421 340.65006780012294L 674.5128379033663 350.94122727854017L 682.1879832303729 360.8734784352516L 690.1422794742616 370.4468212702574L 698.3757266350326 379.6612557835574L 706.8883247126857 388.51678197515173L 715.6800737072213 397.01339984504034L 724.7509736186389 405.1511093932232L 734.1010244469387 412.9299106197003L 743.7302261921209 420.3498035244718L 753.6385788541852 427.4107881075374L 763.8260824331319 434.1128643688975L 774.2927369289606 440.4560323085517L 785.0385423416717 446.4402919265002L 796.0634986712649 452.06564322274306L 807.3676059177404 457.33208619728015" fill="none" stroke="#000000" stroke-width="2"></path>
    <path transform="translate(807.3676059177404 457.33208619728015) rotate(21.216240334132696)" d="M-1, -5 L 14 0 L -1, 5 z" fill="#000000"></path>
    <text class="edge" transform="translate(737.7211877297016 415.7870443475265) rotate(37.87498365109821)" fill="#000000" x="0" y="-5" dominant-baseline="text-bottom" text-anchor="middle" font-size="18px">0.7</text>
    <path d="M 990 560L 384.98046875 560" fill="none" stroke="#000000" stroke-width="2"></path>
    <path transform="translate(384.98046875 560) rotate(180)" d="M-1, -5 L 14 0 L -1, 5 z" fill="#000000"></path>
    <text class="edge" transform="translate(670 560) rotate(0)" fill="#000000" x="0" y="-5" dominant-baseline="text-bottom" text-anchor="middle" font-size="18px">0.2257</text>
    <path d="M 990 560L 981.7638221323184 531.3962581327568L 973.0342615157483 503.01775621609306L 963.8113181502899 474.8644942500088L 954.094992035943 446.93647223450404L 943.8852831727079 419.2336901695787L 933.1821915605844 391.756148055233L 921.9857171995725 364.50384589146665L 910.295860089672 337.4767836782798L 898.1126202308833 310.67496141567244L 885.4359976232063 284.09837910364456L 872.2659922666408 257.74703674219614L 858.6026041611868 231.62093433132722L 844.4458333068446 205.7200718710378L 829.7956797036139 180.04444936132785L 814.6521433514948 154.59406680219735L 799.0152242504874 129.36892419364636" fill="none" stroke="#000000" stroke-width="2"></path>
    <path transform="translate(799.0152242504874 129.36892419364636) rotate(-122.9214703936996)" d="M-1, -5 L 14 0 L -1, 5 z" fill="#000000"></path>
    <text class="edge" transform="translate(903.1937600772607 321.6941530082071) rotate(65.4622715234222)" fill="#000000" x="0" y="-5" dominant-baseline="text-bottom" text-anchor="middle" font-size="18px">0.3385</text>
    <path d="M 990 560L 1032.4759316940886 550.5608440934963L 1074.772694955078 540.5841828876943L 1116.8902897829676 530.070016382594L 1158.8287161777578 519.0183445781953L 1200.5879741394488 507.4291674744983L 1242.16806366804 495.30248507150304L 1283.5689847635322 482.63829736920945L 1324.7907374259246 469.4366043676176L 1365.8333216552178 455.69740606672735L 1406.6967374514115 441.42070246653884L 1447.3809848145056 426.606493567052L 1487.8860637445005 411.25477936826684L 1528.2119742413959 395.3655598701834L 1568.3587163051916 378.9388350728016L 1608.326289935888 361.97460497612155L 1648.1146951334852 344.47286958014314" fill="none" stroke="#000000" stroke-width="2"></path>
    <path transform="translate(1648.1146951334852 344.47286958014314) rotate(-24.41349126128093)" d="M-1, -5 L 14 0 L -1, 5 z" fill="#000000"></path>
    <text class="edge" transform="translate(1341.324555320337 463.9736659610103) rotate(-18.434948822922006)" fill="#000000" x="0" y="-5" dominant-baseline="text-bottom" text-anchor="middle" font-size="18px">0.7</text>
    <path d="M 840 470L 832.8831565067579 459.34993219987706L 825.4871620966337 449.05877272145983L 817.8120167696271 439.1265215647484L 809.8577205257384 429.5531787297426L 801.6242733649674 420.3387442164426L 793.1116752873143 411.48321802484827L 784.3199262927787 402.98660015495966L 775.2490263813611 394.8488906067768L 765.8989755530613 387.0700893802997L 756.2697738078791 379.6501964755282L 746.3614211458148 372.5892118924626L 736.1739175668681 365.8871356311025L 725.7072630710394 359.5439676914483L 714.9614576583283 353.5597080734998L 703.9365013287351 347.93435677725694L 692.6323940822596 342.66791380271985" fill="none" stroke="#000000" stroke-width="2"></path>
    <path transform="translate(692.6323940822596 342.66791380271985) rotate(-158.78375966586734)" d="M-1, -5 L 14 0 L -1, 5 z" fill="#000000"></path>
    <text class="edge" transform="translate(762.2788122702984 384.2129556524735) rotate(37.8749836510982)" fill="#000000" x="0" y="-5" dominant-baseline="text-bottom" text-anchor="middle" font-size="18px">0.0406</text>
    <path d="M 840 470L 959.9844360351562 541.9906616210938" fill="none" stroke="#000000" stroke-width="2"></path>
    <path transform="translate(959.9844360351562 541.9906616210938) rotate(30.963756532073525)" d="M-1, -5 L 14 0 L -1, 5 z" fill="#000000"></path>
    <text class="edge" transform="translate(915 515) rotate(30.963756532073518)" fill="#000000" x="0" y="-5" dominant-baseline="text-bottom" text-anchor="middle" font-size="18px">0.061</text>
    <path d="M 1680 330L 1649.1473579406738 318.26689374145644L 1618.2947158813477 307.2657256005914L 1587.4420738220215 296.99649557740486L 1556.5894317626953 287.45920367189683L 1525.7367897033691 278.6538498840673L 1494.884147644043 270.5804342139163L 1464.0315055847168 263.2389566614438L 1433.1788635253906 256.6294172266498L 1402.3262214660645 250.75181590953434L 1371.4735794067383 245.60615271009738L 1340.620937347412 241.19242762833892L 1309.768295288086 237.51064066425897L 1278.9156532287598 234.56079181785753L 1248.0630111694336 232.3428810891346L 1217.2103691101074 230.8569084780902L 1186.3577270507812 230.10287398472428L 1155.505084991455 230.0807776090369L 1124.652442932129 230.790619351028L 1093.7998008728027 232.23239921069762L 1062.9471588134766 234.40611718804576L 1032.0945167541504 237.3117732830724L 1001.2418746948242 240.94936749577755L 970.389232635498 245.3188998261612L 939.5365905761719 250.4203702742234L 908.6839485168457 256.25377883996407L 877.8313064575195 262.81912552338326L 846.9786643981934 270.11641032448097L 816.1260223388672 278.1456332432572L 785.273380279541 286.9067942797119L 754.4207382202148 296.39989343384514L 723.5680961608887 306.6249307056569L 692.7154541015625 317.58190609514713" fill="none" stroke="#000000" stroke-width="2"></path>
    <path transform="translate(692.7154541015625 317.58190609514713) rotate(159.21429814997975)" d="M-1, -5 L 14 0 L -1, 5 z" fill="#000000"></path>
    <text class="edge" transform="translate(1170 230) rotate(0)" fill="#000000" x="0" y="-5" dominant-baseline="text-bottom" text-anchor="middle" font-size="18px">0.2257</text>
    <path d="M 1680 330L 1637.5240683059114 339.43915590650374L 1595.227305044922 349.4158171123057L 1553.1097102170324 359.92998361740604L 1511.1712838222422 370.9816554218047L 1469.4120258605512 382.5708325255017L 1427.83193633196 394.69751492849696L 1386.4310152364678 407.36170263079055L 1345.2092625740754 420.5633956323824L 1304.1666783447822 434.30259393327265L 1263.3032625485885 448.57929753346116L 1222.6190151854944 463.393506432948L 1182.1139362554995 478.74522063173316L 1141.7880257586041 494.6344401298166L 1101.6412836948084 511.0611649271984L 1061.6737100641117 528.0253950238784L 1021.8853048665148 545.5271304198568" fill="none" stroke="#000000" stroke-width="2"></path>
    <path transform="translate(1021.8853048665148 545.5271304198568) rotate(155.58650873871898)" d="M-1, -5 L 14 0 L -1, 5 z" fill="#000000"></path>
    <text class="edge" transform="translate(1328.675444679663 426.0263340389897) rotate(-18.43494882292202)" fill="#000000" x="0" y="-5" dominant-baseline="text-bottom" text-anchor="middle" font-size="18px">0.3385</text>
    <circle cx="360" cy="100" r="20" fill="#ffffff" stroke="#000000" stroke-width="1.5"/>
    <text class="vertex" x="360" y="100" dominant-baseline="middle" text-anchor="middle" fill="#000000" font-size="18px">1</text>
    <circle cx="350" cy="560" r="20" fill="#ffffff" stroke="#000000" stroke-width="1.5"/>
    <text class="vertex" x="350" y="560" dominant-baseline="middle" text-anchor="middle" fill="#000000" font-size="18px">2</text>
    <circle cx="780" cy="100" r="20" fill="#ffffff" stroke="#000000" stroke-width="1.5"/>
    <text class="vertex" x="780" y="100" dominant-baseline="middle" text-anchor="middle" fill="#000000" font-size="18px">3</text>
    <circle cx="660" cy="330" r="20" fill="#ffffff" stroke="#000000" stroke-width="1.5"/>
    <text class="vertex" x="660" y="330" dominant-baseline="middle" text-anchor="middle" fill="#000000" font-size="18px">4</text>
    <circle cx="990" cy="560" r="20" fill="#ffffff" stroke="#000000" stroke-width="1.5"/>
    <text class="vertex" x="990" y="560" dominant-baseline="middle" text-anchor="middle" fill="#000000" font-size="18px">5</text>
    <circle cx="840" cy="470" r="20" fill="#ffffff" stroke="#000000" stroke-width="1.5"/>
    <text class="vertex" x="840" y="470" dominant-baseline="middle" text-anchor="middle" fill="#000000" font-size="18px">6</text>
    <circle cx="1680" cy="330" r="20" fill="#ffffff" stroke="#000000" stroke-width="1.5"/>
    <text class="vertex" x="1680" y="330" dominant-baseline="middle" text-anchor="middle" fill="#000000" font-size="18px">7</text>
</svg>